<svg xmlns="http://www.w3.org/2000/svg" width="16" height="16" viewBox="0 0 16 16">
  <g>
    <path d="M7.98465702,14.6579132 C4.3049634,14.6579132 1.31139745,11.6642451 1.31139745,7.98465362 C1.31139745,4.30509617 4.3049634,1.31139404 7.98465702,1.31139404 C11.6642145,1.31139404 14.6577804,4.30509617 14.6577804,7.98465362 C14.6577804,11.6642451 11.6642145,14.6579132 7.98465702,14.6579132 M7.98465702,6.80851064e-06 C3.57475064,6.80851064e-06 1.0212766e-05,3.57478128 1.0212766e-05,7.98465362 C1.0212766e-05,12.39456 3.57475064,15.9691983 7.98465702,15.9691983 C12.3944272,15.9691983 15.9691677,12.39456 15.9691677,7.98465362 C15.9691677,3.57478128 12.3944272,6.80851064e-06 7.98465702,6.80851064e-06" stroke="none" fill="currentColor" stroke-width="0" stroke-linecap="round" stroke-linejoin="round"/>
    <path d="M12.0730043,8.69471319 L11.0115574,7.98465362 L12.0730043,7.27462809 L12.0730043,8.69471319 Z M8.40890213,11.7044834 L8.40890213,9.72548766 L10.2483915,8.49525787 L11.7332936,9.48834723 L8.40890213,11.7044834 Z M7.98466383,8.98843234 L6.48393191,7.98465362 L7.98466383,6.98087489 L9.48525957,7.98465362 L7.98466383,8.98843234 Z M7.56028936,11.7044834 L4.23586383,9.48834723 L5.72090213,8.49525787 L7.56028936,9.72548766 L7.56028936,11.7044834 Z M3.89618723,7.27462809 L4.95773617,7.98465362 L3.89618723,8.69471319 L3.89618723,7.27462809 Z M7.56028936,4.26482383 L7.56028936,6.24381957 L5.72090213,7.4743217 L4.23586383,6.48092596 L7.56028936,4.26482383 Z M8.40890213,4.26482383 L11.7332936,6.48092596 L10.2483915,7.4743217 L8.40890213,6.24381957 L8.40890213,4.26482383 Z M12.9178383,6.42509617 C12.9169532,6.41886638 12.9153872,6.41290894 12.914366,6.40667915 C12.9122553,6.39469617 12.9100766,6.38274723 12.9069447,6.37107064 C12.9051064,6.36405787 12.9025191,6.35731745 12.9003404,6.35057702 C12.8969362,6.34016 12.893566,6.32977702 12.8894128,6.31966638 C12.8865191,6.31265362 12.883183,6.30564085 12.8799489,6.29890043 C12.8754894,6.28926638 12.8708596,6.27990468 12.8655149,6.27084936 C12.861634,6.26407489 12.8574809,6.25757277 12.8534638,6.25110468 C12.8477447,6.24225362 12.8418894,6.23367489 12.8354894,6.22536851 C12.8308596,6.21913872 12.8259234,6.21290894 12.8209872,6.20691745 C12.8142128,6.19915574 12.8072,6.19136 12.7998128,6.18407489 C12.7942638,6.17838979 12.7887489,6.17267064 12.7829277,6.16746213 C12.7751319,6.16044936 12.7670979,6.15367489 12.7588936,6.14720681 C12.7525617,6.14227064 12.7462979,6.13733447 12.7396936,6.13267064 C12.7372085,6.13110468 12.7350298,6.12902809 12.7326809,6.12746213 L8.21993191,3.11898553 C8.07739574,3.02393872 7.89179574,3.02393872 7.74922553,3.11898553 L3.23651064,6.12746213 C3.2341617,6.12902809 3.23194894,6.13110468 3.22949787,6.13267064 C3.22285957,6.13733447 3.21662979,6.14227064 3.2104,6.14720681 C3.20209362,6.15367489 3.19402553,6.16044936 3.1864,6.16746213 C3.18040851,6.17267064 3.1749617,6.17838979 3.16937872,6.18407489 C3.16199149,6.19136 3.15497872,6.19915574 3.14834043,6.20691745 C3.14326809,6.21290894 3.13833191,6.21913872 3.13366809,6.22536851 C3.1274383,6.23367489 3.12144681,6.24225362 3.11586383,6.25110468 C3.11157447,6.25757277 3.10755745,6.26407489 3.1036766,6.27084936 C3.09846809,6.27990468 3.09380426,6.28926638 3.08924255,6.29890043 C3.08600851,6.30564085 3.0826383,6.31265362 3.07977872,6.31966638 C3.07562553,6.32977702 3.07225532,6.34016 3.06885106,6.35057702 C3.0666383,6.35731745 3.06418723,6.36405787 3.06224681,6.37107064 C3.05911489,6.38274723 3.0570383,6.39469617 3.05482553,6.40667915 C3.05380426,6.41290894 3.0522383,6.41886638 3.05145532,6.42509617 C3.04897021,6.44327489 3.04757447,6.46172596 3.04757447,6.48041532 L3.04757447,9.48889191 C3.04757447,9.50758128 3.04897021,9.52603234 3.05145532,9.5444834 C3.0522383,9.55047489 3.05380426,9.55667064 3.05482553,9.56262809 C3.0570383,9.57461106 3.05911489,9.58652596 3.06224681,9.5982366 C3.06418723,9.60524936 3.0666383,9.61198979 3.06885106,9.61876426 C3.07225532,9.62911319 3.07562553,9.63953021 3.07977872,9.64991319 C3.0826383,9.65696 3.08600851,9.66370043 3.08924255,9.67044085 C3.09380426,9.68000681 3.09846809,9.68936851 3.1036766,9.69873021 C3.10755745,9.70526638 3.11157447,9.71170043 3.11586383,9.71820255 C3.12144681,9.72705362 3.1274383,9.73563234 3.13366809,9.74393872 C3.13833191,9.75044085 3.14326809,9.7563983 3.14834043,9.76235574 C3.15497872,9.77015149 3.16199149,9.77794723 3.16937872,9.78523234 C3.1749617,9.79091745 3.18040851,9.7966366 3.1864,9.80181106 C3.19402553,9.80889191 3.20209362,9.81563234 3.2104,9.82210043 C3.21662979,9.82707064 3.22285957,9.83197277 3.22949787,9.8366366 C3.23194894,9.83820255 3.2341617,9.84027915 3.23651064,9.84181106 L7.74922553,12.8503217 C7.82051064,12.8978451 7.90258723,12.921743 7.98466383,12.921743 C8.06660426,12.921743 8.14864681,12.8978451 8.21993191,12.8503217 L12.7326809,9.84181106 C12.7350298,9.84027915 12.7372085,9.83820255 12.7396936,9.8366366 C12.7462979,9.83197277 12.7525617,9.82707064 12.7588936,9.82210043 C12.7670979,9.81563234 12.7751319,9.80889191 12.7829277,9.80181106 C12.7887489,9.7966366 12.7942638,9.79091745 12.7998128,9.78523234 C12.8072,9.77794723 12.8142128,9.77015149 12.8209872,9.76235574 C12.8259234,9.7563983 12.8308596,9.75044085 12.8354894,9.74393872 C12.8418894,9.73563234 12.8477447,9.72705362 12.8534638,9.71820255 C12.8574809,9.71170043 12.861634,9.70526638 12.8655149,9.69873021 C12.8708596,9.68936851 12.8754894,9.68000681 12.8799489,9.67044085 C12.883183,9.66370043 12.8865191,9.65696 12.8894128,9.64991319 C12.893566,9.63953021 12.8969362,9.62911319 12.9003404,9.61876426 C12.9025191,9.61198979 12.9051064,9.60524936 12.9069447,9.5982366 C12.9100766,9.58652596 12.9122553,9.57461106 12.914366,9.56262809 C12.9153872,9.55667064 12.9169532,9.55047489 12.9178383,9.5444834 C12.9201872,9.52603234 12.9216511,9.50758128 12.9216511,9.48889191 L12.9216511,6.48041532 C12.9216511,6.46172596 12.9201872,6.44327489 12.9178383,6.42509617 L12.9178383,6.42509617 Z" stroke="none" fill="currentColor" stroke-width="0" stroke-linecap="round" stroke-linejoin="round"/>
  </g>
</svg>
